

[code]
oooooo     oooo  o8o   .oooooo..o ooooo     ooo       .o.       ooooo         o8o   .oooooo..o oooooooooooo
`888.     .8'   `"'  d8P'    `Y8 `888'     `8'      .888.      `888'         `"'  d8P'    `Y8 `888'     `8
`888.   .8'   oooo  Y88bo.       888       8      .8"888.      888         oooo  Y88bo.       888        
 `888. .8'    `888   `"Y8888o.   888       8     .8' `888.     888         `888   `"Y8888o.   888oooo8    
  `888.8'      888       `"Y88b  888       8    .88ooo8888.    888          888       `"Y88b  888    "    
   `888'       888  oo     .d8P  `88.    .8'   .8'     `888.   888       o  888  oo     .d8P  888       o
    `8'       o888o 8""88888P'     `YbodP'    o88o     o8888o o888ooooood8 o888o 8""88888P'  o888ooooood8

[/code]


Title: Alyce 2012 DvDRiP XviD - VISUALiSE
Format: Xvid
Language: English
Subtitles: No
Imdb: http://www.imdb.com/title/tt1680051/

Plot:
After accidentally knocking her best friend off a roof, Alyce is haunted by guilt 
and delves into a brutal downward spiral of sex, drugs and violence, 
her mind tearing itself apart . . . 
along with anyone else who gets in her way

Sources:
Video: Retail DVDR - Many Thanks 
Audio: Retail DVDR - Many Thanks 

Release Notes:
Alyce 2012 DvDRiP XviD - VISUALiSE
Straight forward rip from the dvdr ran 
a few filters etc etc  

enjoy. 

Info:
Video

ID                               : 0
Format                           : MPEG-4 Visual
Format profile                   : Advanced Simple@L5
Format settings, BVOP            : 2
Format settings, QPel            : No
Format settings, GMC             : No warppoints
Format settings, Matrix          : Default (MPEG)
Codec ID                         : XVID
Codec ID/Hint                    : XviD
Duration                         : 1h 29mn
Bit rate                         : 864 Kbps
Width                            : 714 pixels
Height                           : 400 pixels
Display aspect ratio             : 16:9
Frame rate                       : 29.970 fps
Color space                      : YUV
Chroma subsampling               : 4:2:0
Bit depth                        : 8 bits
Scan type                        : Progressive
Compression mode                 : Lossy
Bits/(Pixel*Frame)               : 0.101
Stream size                      : 556 MiB (86%)

Audio
ID                               : 1
Format                           : MPEG Audio
Format version                   : Version 1
Format profile                   : Layer 3
Codec ID                         : 55
Codec ID/Hint                    : MP3
Duration                         : 1h 29mn
Bit rate mode                    : Constant
Bit rate                         : 128 Kbps
Channel(s)                       : 2 channels
Sampling rate                    : 48.0 KHz
Compression mode                 : Lossy
Delay relative to video          : 33ms
Stream size                      : 82.3 MiB (13%)
Alignment                        : Aligned on interleaves
Interleave, duration             : 24 ms (0.72 video frame)
Interleave, preload duration     : 504 ms

Screens:

[img]http://i.imgur.com/STM08.png[/img]
[img]http://i.imgur.com/2oOpN.png[/img]
[img]http://i.imgur.com/GAA2W.png[/img]
[img]http://i.imgur.com/GAA2W.png[/img]
[img]http://i.imgur.com/BPT9q.png[/img]
[img]http://i.imgur.com/IAKTU.png[/img]



Greetz
The Select Few .... YOU Know Who YOU Are 
